<?xml version="1.0" encoding="UTF-8"?>
<!DOCTYPE svg PUBLIC "-//W3C//DTD SVG 1.1//EN" "http://www.w3.org/Graphics/SVG/1.1/DTD/svg11.dtd">
<!-- Creator: CorelDRAW 2020 (64-Bit) -->
<svg xmlns="http://www.w3.org/2000/svg" xml:space="preserve" width="210mm" height="297mm" version="1.1" style="shape-rendering:geometricPrecision; text-rendering:geometricPrecision; image-rendering:optimizeQuality; fill-rule:evenodd; clip-rule:evenodd"
viewBox="0 0 21000 29700"
 xmlns:xlink="http://www.w3.org/1999/xlink"
 xmlns:xodm="http://www.corel.com/coreldraw/odm/2003">
 <defs>
  <style type="text/css">
   <![CDATA[
    .fil0 {fill:#FEFEFE}
   ]]>
  </style>
 </defs>
 <g id="Слой_x0020_1">
  <metadata id="CorelCorpID_0Corel-Layer"/>
  <path class="fil0" d="M12042.3 20833.09c433.48,0 523.12,-129.85 834.01,-440.74 320.96,-320.96 440.74,-375.24 440.74,-861.13 0,-332.04 -377.48,-608.02 -562.79,-793.33 -473.48,-473.48 -4734.56,-4698.78 -4834.55,-4848.11 141.47,-94.74 4764.65,-4754.52 5078.77,-5064.97 334.36,-330.45 483.7,-748.14 160.53,-1150.74 -72.93,-90.87 -533.38,-555.5 -649.12,-625.62 -93.3,-56.53 -184.44,-88.77 -272.98,-101.98l-191.28 0c-420.14,61.36 -767.64,506.65 -986.52,725.52l-5628.41 5627.34c-353.38,356.53 -366.25,817.42 -13.43,1167.2l6062.23 6061.44c132.48,132.96 311.26,305.12 562.8,305.12z"/>
 </g>
</svg>
